<svg width="24" height="24" viewBox="0 0 24 24" fill="none" xmlns="http://www.w3.org/2000/svg">
<path d="M10.4211 4C5.15785 4 2 8.222 2 10.3332C2 12.4444 3.05248 14.0277 5.15785 14.0277C7.26322 14.0277 8.31612 14.5552 8.31612 16.1385C8.31612 18.2493 9.89484 19.8326 12.0002 19.8326C18.8426 19.8326 22 16.1385 22 12.4444C21.9996 6.11121 16.7355 4 10.4211 4ZM9.10527 6.11121C9.27828 6.11142 9.44956 6.14572 9.60932 6.21213C9.76908 6.27854 9.91419 6.37577 10.0364 6.49826C10.1586 6.62076 10.2554 6.76612 10.3214 6.92604C10.3874 7.08597 10.4213 7.25733 10.4211 7.43034C10.4211 8.1595 9.83192 8.7499 9.10527 8.7499C8.37862 8.7499 7.78946 8.15908 7.78946 7.43034C7.78924 7.25733 7.8231 7.08597 7.88911 6.92604C7.95512 6.76612 8.05198 6.62076 8.17416 6.49826C8.29635 6.37577 8.44146 6.27854 8.60122 6.21213C8.76098 6.14572 8.93226 6.11142 9.10527 6.11121V6.11121ZM13.3152 6.11121C13.4882 6.11142 13.6595 6.14572 13.8192 6.21213C13.979 6.27854 14.1241 6.37577 14.2463 6.49826C14.3685 6.62076 14.4653 6.76612 14.5313 6.92604C14.5973 7.08597 14.6312 7.25733 14.631 7.43034C14.6313 7.60339 14.5974 7.7748 14.5315 7.93477C14.4655 8.09475 14.3686 8.24016 14.2464 8.3627C14.1242 8.48523 13.9791 8.5825 13.8193 8.64894C13.6595 8.71537 13.4882 8.74968 13.3152 8.7499C13.1422 8.74963 12.9709 8.71528 12.8112 8.64882C12.6514 8.58236 12.5063 8.48508 12.3842 8.36255C12.2621 8.24002 12.1652 8.09463 12.0993 7.93468C12.0333 7.77473 11.9995 7.60336 11.9998 7.43034C11.9993 7.081 12.1377 6.74578 12.3843 6.49841C12.631 6.25104 12.9658 6.11176 13.3152 6.11121V6.11121ZM17.5259 8.22199C17.699 8.22216 17.8704 8.25643 18.0302 8.32284C18.19 8.38925 18.3352 8.48651 18.4574 8.60905C18.5797 8.7316 18.6766 8.87702 18.7426 9.03703C18.8086 9.19703 18.8424 9.36847 18.8421 9.54155C18.8424 9.71461 18.8086 9.88603 18.7426 10.046C18.6766 10.206 18.5797 10.3514 18.4574 10.4739C18.3352 10.5964 18.19 10.6936 18.0302 10.76C17.8703 10.8264 17.699 10.8606 17.5259 10.8607C17.3529 10.8605 17.1816 10.8263 17.0219 10.7599C16.8621 10.6935 16.717 10.5962 16.5948 10.4737C16.4727 10.3512 16.3759 10.2058 16.3099 10.0459C16.244 9.88594 16.2102 9.71456 16.2105 9.54155C16.2102 9.36852 16.244 9.19712 16.3099 9.03715C16.3759 8.87718 16.4727 8.73177 16.5948 8.60922C16.717 8.48668 16.8621 8.38941 17.0218 8.32297C17.1816 8.25652 17.3529 8.22221 17.5259 8.22199V8.22199ZM5.42118 9.27781C5.59415 9.27797 5.7654 9.31222 5.92513 9.37859C6.08487 9.44496 6.22996 9.54215 6.35211 9.66462C6.47427 9.78709 6.5711 9.93242 6.63706 10.0923C6.70303 10.2522 6.73684 10.4236 6.73657 10.5965C6.73657 11.3257 6.14741 11.9161 5.42118 11.9161C4.69494 11.9161 4.10537 11.3253 4.10537 10.5965C4.10504 10.2472 4.24347 9.91201 4.49022 9.66472C4.73697 9.41742 5.07184 9.27825 5.42118 9.27781V9.27781ZM11.9998 14.5552C12.8719 14.5552 13.5785 15.2635 13.5785 16.1389C13.5785 17.0131 12.8719 17.7218 11.9998 17.7218C11.1277 17.7218 10.4211 17.0131 10.4211 16.1389C10.4207 15.9312 10.4612 15.7255 10.5404 15.5336C10.6195 15.3416 10.7357 15.167 10.8823 15.02C11.0289 14.8729 11.2031 14.7562 11.3948 14.6764C11.5866 14.5967 11.7921 14.5555 11.9998 14.5552V14.5552Z" fill="black"/>
</svg>
