<svg width="24" height="24" viewBox="0 0 24 24" fill="none" xmlns="http://www.w3.org/2000/svg">
<path d="M22 18.5455C22 19.0277 21.8084 19.4901 21.4675 19.8311C21.1265 20.1721 20.664 20.3636 20.1818 20.3636H3.81818C3.33597 20.3636 2.87351 20.1721 2.53253 19.8311C2.19156 19.4901 2 19.0277 2 18.5455V8.54545C2 8.06324 2.19156 7.60078 2.53253 7.25981C2.87351 6.91883 3.33597 6.72727 3.81818 6.72727H7.45455L9.27273 4H14.7273L16.5455 6.72727H20.1818C20.664 6.72727 21.1265 6.91883 21.4675 7.25981C21.8084 7.60078 22 8.06324 22 8.54545V18.5455Z" stroke="white" stroke-width="2" stroke-linecap="round" stroke-linejoin="round"/>
<path d="M12 16.7273C14.0083 16.7273 15.6364 15.0992 15.6364 13.0909C15.6364 11.0826 14.0083 9.45455 12 9.45455C9.99169 9.45455 8.36364 11.0826 8.36364 13.0909C8.36364 15.0992 9.99169 16.7273 12 16.7273Z" stroke="white" stroke-width="2" stroke-linecap="round" stroke-linejoin="round"/>
</svg>
