<svg width="24" height="24" viewBox="0 0 24 24" fill="none" xmlns="http://www.w3.org/2000/svg">
<path d="M12.0013 3C6.47858 3 2.00259 6.63625 2.00259 11.1239C2.00259 12.9831 2.77984 14.686 4.06873 16.0569C3.48677 17.5958 2.27599 18.9003 2.25647 18.9159C1.99869 19.1893 1.92838 19.5877 2.0768 19.9314C2.22522 20.2751 2.56502 20.4977 2.93997 20.4977C5.342 20.4977 7.23629 19.494 8.37286 18.6894C9.50162 19.0448 10.7202 19.2479 12.0013 19.2479C17.524 19.2479 22 15.6116 22 11.1239C22 6.63625 17.524 3 12.0013 3ZM12.0013 17.3731C10.9585 17.3731 9.92735 17.213 8.93919 16.9005L8.05259 16.6193L7.29097 17.1583C6.73245 17.5528 5.96692 17.9942 5.04517 18.291C5.33029 17.8184 5.60759 17.2872 5.82241 16.7209L6.23642 15.6234L5.43184 14.7719C4.7249 14.0181 3.87735 12.7722 3.87735 11.1239C3.87735 7.67908 7.52141 4.87476 12.0013 4.87476C16.4812 4.87476 20.1252 7.67908 20.1252 11.1239C20.1252 14.5688 16.4812 17.3731 12.0013 17.3731Z" fill="white"/>
</svg>
