<svg width="24" height="24" viewBox="0 0 24 24" fill="none" xmlns="http://www.w3.org/2000/svg">
<path d="M17 17.7243C17 19.1055 15.6 20.2243 13.875 20.2243C12.15 20.2243 10.75 19.1055 10.75 17.7243C10.75 16.343 12.15 15.2243 13.875 15.2243C15.6 15.2243 17 16.343 17 17.7243Z" fill="black"/>
<path fill-rule="evenodd" clip-rule="evenodd" d="M17 5.22425V17.7243H15.75V5.22425H17Z" fill="black"/>
<path d="M15.75 4.99925C15.7502 4.71038 15.8504 4.43049 16.0336 4.20716C16.2168 3.98384 16.4717 3.83086 16.755 3.77425L20.505 3.02425C20.6863 2.98801 20.8733 2.99244 21.0527 3.0372C21.2321 3.08197 21.3993 3.16596 21.5423 3.28313C21.6852 3.4003 21.8005 3.54772 21.8796 3.71478C21.9588 3.88184 21.9999 4.06438 22 4.24925V6.47425L15.75 7.72425V4.99925Z" fill="black"/>
<path fill-rule="evenodd" clip-rule="evenodd" d="M2 15.8493C2 15.6835 2.06585 15.5245 2.18306 15.4073C2.30027 15.2901 2.45924 15.2243 2.625 15.2243H7C7.16576 15.2243 7.32473 15.2901 7.44194 15.4073C7.55915 15.5245 7.625 15.6835 7.625 15.8493C7.625 16.015 7.55915 16.174 7.44194 16.2912C7.32473 16.4084 7.16576 16.4743 7 16.4743H2.625C2.45924 16.4743 2.30027 16.4084 2.18306 16.2912C2.06585 16.174 2 16.015 2 15.8493ZM2 10.8493C2 10.6835 2.06585 10.5245 2.18306 10.4073C2.30027 10.2901 2.45924 10.2243 2.625 10.2243H12C12.1658 10.2243 12.3247 10.2901 12.4419 10.4073C12.5592 10.5245 12.625 10.6835 12.625 10.8493C12.625 11.015 12.5592 11.174 12.4419 11.2912C12.3247 11.4084 12.1658 11.4743 12 11.4743H2.625C2.45924 11.4743 2.30027 11.4084 2.18306 11.2912C2.06585 11.174 2 11.015 2 10.8493ZM2 5.84925C2 5.68349 2.06585 5.52452 2.18306 5.40731C2.30027 5.2901 2.45924 5.22425 2.625 5.22425H12C12.1658 5.22425 12.3247 5.2901 12.4419 5.40731C12.5592 5.52452 12.625 5.68349 12.625 5.84925C12.625 6.01501 12.5592 6.17398 12.4419 6.29119C12.3247 6.4084 12.1658 6.47425 12 6.47425H2.625C2.45924 6.47425 2.30027 6.4084 2.18306 6.29119C2.06585 6.17398 2 6.01501 2 5.84925Z" fill="black"/>
</svg>
