<svg width="24" height="24" viewBox="0 0 24 24" fill="none" xmlns="http://www.w3.org/2000/svg">
<path d="M3.1827 19.1852L4.46602 19.7215V11.0734L2.1388 16.6856C1.74614 17.6624 2.21542 18.783 3.1827 19.1852V19.1852ZM21.8579 15.6417L17.1077 4.17798C16.9632 3.83536 16.7226 3.54187 16.415 3.33286C16.1075 3.12385 15.746 3.00825 15.3743 3C15.1253 3 14.8667 3.03831 14.6177 3.14366L7.55941 6.06465C7.09343 6.25936 6.72326 6.63031 6.52954 7.09669C6.33581 7.56308 6.33421 8.08712 6.52509 8.55468L11.2753 20.0184C11.4698 20.4845 11.8407 20.8549 12.3072 21.0486C12.7736 21.2424 13.2978 21.2439 13.7653 21.0527L20.814 18.1317C21.2826 17.9398 21.6557 17.5698 21.8515 17.1028C22.0472 16.6359 22.0496 16.1103 21.8579 15.6417V15.6417ZM13.047 19.281L8.29684 7.82683L15.336 4.91541H15.3455L20.0862 16.36L13.047 19.281V19.281Z" fill="black"/>
<path d="M11 10C11.5523 10 12 9.55228 12 9C12 8.44772 11.5523 8 11 8C10.4477 8 10 8.44772 10 9C10 9.55228 10.4477 10 11 10Z" fill="black"/>
<path d="M5.88 19.75C5.88 20.85 6.78 21.75 7.88 21.75H9.33L5.88 13.41V19.75Z" fill="black"/>
</svg>
