<svg width="24" height="24" viewBox="0 0 24 24" fill="none" xmlns="http://www.w3.org/2000/svg">
<path d="M4 16V13H3C2.73478 13 2.48043 12.8947 2.29289 12.7071C2.10536 12.5196 2 12.2652 2 12C2 11.7348 2.10536 11.4804 2.29289 11.2929C2.48043 11.1054 2.73478 11 3 11H4L8 4.00001H16L20 11H21C21.2652 11 21.5196 11.1054 21.7071 11.2929C21.8946 11.4804 22 11.7348 22 12C22 12.2652 21.8946 12.5196 21.7071 12.7071C21.5196 12.8947 21.2652 13 21 13H20V19C20 19.2652 19.8946 19.5196 19.7071 19.7071C19.5196 19.8947 19.2652 20 19 20H18C17.7348 20 17.4804 19.8947 17.2929 19.7071C17.1054 19.5196 17 19.2652 17 19V18H7V19C7 19.2652 6.89464 19.5196 6.70711 19.7071C6.51957 19.8947 6.26522 20 6 20H5C4.73478 20 4.48043 19.8947 4.29289 19.7071C4.10536 19.5196 4 19.2652 4 19V16ZM17.86 11L15 6.00001H9L6.14 11H17.86ZM7.5 16C7.69698 16 7.89204 15.9612 8.07403 15.8858C8.25601 15.8104 8.42137 15.7 8.56066 15.5607C8.69995 15.4214 8.81044 15.256 8.88582 15.074C8.9612 14.892 9 14.697 9 14.5C9 14.303 8.9612 14.108 8.88582 13.926C8.81044 13.744 8.69995 13.5786 8.56066 13.4393C8.42137 13.3001 8.25601 13.1896 8.07403 13.1142C7.89204 13.0388 7.69698 13 7.5 13C7.10218 13 6.72064 13.158 6.43934 13.4393C6.15804 13.7207 6 14.1022 6 14.5C6 14.8978 6.15804 15.2794 6.43934 15.5607C6.72064 15.842 7.10218 16 7.5 16V16ZM16.5 16C16.697 16 16.892 15.9612 17.074 15.8858C17.256 15.8104 17.4214 15.7 17.5607 15.5607C17.6999 15.4214 17.8104 15.256 17.8858 15.074C17.9612 14.892 18 14.697 18 14.5C18 14.303 17.9612 14.108 17.8858 13.926C17.8104 13.744 17.6999 13.5786 17.5607 13.4393C17.4214 13.3001 17.256 13.1896 17.074 13.1142C16.892 13.0388 16.697 13 16.5 13C16.1022 13 15.7206 13.158 15.4393 13.4393C15.158 13.7207 15 14.1022 15 14.5C15 14.8978 15.158 15.2794 15.4393 15.5607C15.7206 15.842 16.1022 16 16.5 16V16Z" fill="black"/>
</svg>
