<svg width="85" height="24" viewBox="0 0 85 24" fill="none" xmlns="http://www.w3.org/2000/svg">
<g clip-path="url(#clip0)">
<path d="M4.46204 0.148272C2.74473 0.867615 0.857109 2.89726 0.26089 5.44685C-0.494288 8.67616 2.64774 10.0422 2.90566 9.5949C3.20894 9.06871 2.34264 8.89085 2.16429 7.21512C1.93382 5.05085 2.94001 2.6326 4.20642 1.57151C4.44149 1.37425 4.43048 1.64877 4.43048 2.15622C4.43048 3.06378 4.38034 11.2113 4.38034 12.9117C4.38034 15.2124 4.28533 15.939 4.11453 16.657C3.94177 17.3844 3.66363 17.8761 3.87421 18.0654C4.1096 18.2771 5.11464 17.7733 5.6964 16.9614C6.39404 15.9876 6.63831 14.8179 6.68221 13.548C6.73514 12.0169 6.73284 9.58734 6.73514 8.20159C6.73711 6.93074 6.75651 3.20926 6.71278 0.971998C6.7021 0.422957 5.18023 -0.152714 4.46204 0.148272" fill="#343433"/>
<path d="M65.439 10.9159C65.3836 12.1121 65.1188 13.047 64.7901 13.7065C64.154 14.9832 62.834 15.3796 62.2734 13.5444C61.968 12.5439 61.9537 10.8732 62.1732 9.47704C62.3967 8.05496 63.0211 6.98088 64.0545 7.0777C65.074 7.17353 65.5512 8.48712 65.439 10.9161V10.9159ZM48.2527 18.3372C48.2389 20.3245 47.926 22.067 47.2554 22.5733C46.3039 23.291 45.0252 22.7525 45.29 21.3023C45.5242 20.019 46.6323 18.7083 48.2555 17.1069C48.2555 17.1069 48.2588 17.4722 48.2527 18.3372ZM47.9929 10.9042C47.9348 11.9938 47.6523 13.0881 47.3441 13.7065C46.708 14.9832 45.3784 15.3824 44.8274 13.5444C44.4506 12.2885 44.5409 10.6634 44.7271 9.63929C44.9691 8.31057 45.5556 7.07786 46.6085 7.07786C47.6323 7.07786 48.1373 8.2011 47.9929 10.9042ZM38.0371 10.8878C37.9746 12.0414 37.7495 13.0059 37.3884 13.7065C36.7348 14.9745 35.4418 15.3766 34.8717 13.5444C34.4606 12.2232 34.6005 10.4219 34.7714 9.44877C35.0252 8.00466 35.6607 6.98088 36.6528 7.07786C37.6718 7.17748 38.1671 8.48712 38.0371 10.8878V10.8878ZM83.6622 12.2354C83.4132 12.2354 83.2994 12.4922 83.2052 12.9242C82.8792 14.4273 82.5362 14.7664 82.0942 14.7664C81.6002 14.7664 81.1563 14.0224 81.0421 12.5328C80.9525 11.3614 80.967 9.20499 81.0815 7.05995C81.1051 6.61923 80.9834 6.18312 79.8013 5.75375C79.2927 5.56899 78.5533 5.29693 78.1851 6.18559C77.1451 8.69638 76.738 10.6897 76.6422 11.4991C76.6373 11.541 76.5858 11.5498 76.5769 11.4518C76.5158 10.8033 76.3795 9.62466 76.3624 7.14871C76.3591 6.66559 76.2569 6.25447 75.7236 5.91781C75.3776 5.69918 74.327 5.31288 73.9488 5.77266C73.621 6.14844 73.2413 7.16005 72.8469 8.3594C72.5264 9.33419 72.3031 9.99337 72.3031 9.99337C72.3031 9.99337 72.3074 7.36356 72.3112 6.36592C72.3128 5.98964 72.0548 5.86422 71.9768 5.84153C71.6267 5.73994 70.9363 5.57014 70.6434 5.57014C70.2817 5.57014 70.1933 5.772 70.1933 6.06657C70.1933 6.1052 70.1362 9.52899 70.1362 11.9231C70.1362 12.0271 70.1362 12.1405 70.1367 12.2612C69.9368 13.3616 69.2883 14.8552 68.5831 14.8552C67.8769 14.8552 67.5439 14.2308 67.5439 11.3767C67.5439 9.71162 67.5939 8.98751 67.6184 7.78323C67.6327 7.08953 67.6603 6.55693 67.6586 6.43611C67.6534 6.06542 67.0126 5.87852 66.7143 5.80948C66.4146 5.73994 66.1542 5.71282 65.9509 5.72449C65.663 5.74093 65.4594 5.92948 65.4594 6.18921C65.4594 6.3286 65.461 6.59326 65.461 6.59326C65.0903 6.01068 64.4941 5.60531 64.0974 5.48778C63.0289 5.17052 61.9141 5.45162 61.0731 6.62844C60.4047 7.56329 60.0018 8.62241 59.8432 10.1438C59.7273 11.2562 59.7651 12.384 59.9712 13.3379C59.7222 14.4143 59.2601 14.8552 58.754 14.8552C58.0192 14.8552 57.4866 13.6562 57.5484 11.582C57.5892 10.2178 57.8622 9.26038 58.1606 7.87529C58.2878 7.28482 58.1844 6.97578 57.9252 6.67956C57.6873 6.40784 57.1805 6.26893 56.4523 6.43956C55.9335 6.56137 55.1916 6.69238 54.5129 6.79299C54.5129 6.79299 54.554 6.62942 54.5875 6.34142C54.7641 4.83074 53.1224 4.95321 52.5985 5.43567C52.286 5.72384 52.0731 6.06362 51.9924 6.67447C51.8642 7.644 52.6549 8.10131 52.6549 8.10131C52.3956 9.28882 51.7596 10.8399 51.1031 11.9615C50.7515 12.5624 50.4825 13.0077 50.1352 13.4809C50.1239 11.5817 50.1362 9.68235 50.1723 7.7834C50.1866 7.0897 50.2144 6.57123 50.2129 6.45025C50.209 6.17934 50.0507 6.07677 49.7214 5.94723C49.4301 5.83249 49.0859 5.75326 48.7287 5.72531C48.278 5.69047 48.0064 5.92931 48.0137 6.21205C48.015 6.26548 48.015 6.59326 48.015 6.59326C47.6443 6.01068 47.0481 5.60531 46.6514 5.48778C45.5829 5.17052 44.4681 5.45162 43.6271 6.62844C42.9589 7.56329 42.5213 8.8754 42.3972 10.1323C42.2818 11.3035 42.303 12.2988 42.4605 13.1375C42.2906 13.9772 41.8021 14.8553 41.2499 14.8553C40.5437 14.8553 40.142 14.2308 40.142 11.3767C40.142 9.71162 40.192 8.98751 40.2166 7.78323C40.2309 7.0897 40.2584 6.55693 40.2569 6.43611C40.2516 6.06542 39.6107 5.87868 39.3123 5.80948C39.0003 5.73715 38.7309 5.71085 38.524 5.72614C38.2511 5.74636 38.0591 5.99079 38.0591 6.1731V6.59326C37.6884 6.01068 37.0922 5.60531 36.6955 5.48778C35.627 5.17052 34.5184 5.45622 33.6712 6.62844C33.1189 7.39266 32.6716 8.23989 32.4414 10.1155C32.3749 10.6575 32.3454 11.1653 32.3494 11.6395C32.1291 12.9868 31.156 14.5396 30.3602 14.5396C29.8945 14.5396 29.4508 13.6361 29.4508 11.711C29.4508 9.14663 29.6096 5.49534 29.6366 5.14356C29.6366 5.14356 30.6421 5.12647 30.8367 5.12416C31.3384 5.11858 31.7926 5.13058 32.4608 5.09622C32.7959 5.07929 33.1187 3.87649 32.7728 3.72773C32.616 3.66033 31.5082 3.60148 31.069 3.59211C30.6998 3.58389 29.6717 3.50762 29.6717 3.50762C29.6717 3.50762 29.764 1.08411 29.7855 0.828164C29.8036 0.61463 29.5274 0.504822 29.3693 0.438246C28.9843 0.275507 28.6399 0.197425 28.2317 0.11326C27.6676 -0.00312335 27.4118 0.110794 27.3618 0.586685C27.2865 1.30915 27.2476 3.42526 27.2476 3.42526C26.8337 3.42526 25.4196 3.34438 25.0057 3.34438C24.6211 3.34438 24.2058 4.99874 24.7378 5.01912C25.3496 5.04279 26.416 5.06351 27.1228 5.08455C27.1228 5.08455 27.0912 8.796 27.0912 9.94208C27.0912 10.0637 27.0919 10.1813 27.0926 10.2952C26.7035 12.3228 25.3332 13.4183 25.3332 13.4183C25.6274 12.0768 25.0263 11.0693 23.9435 10.2164C23.5445 9.9023 22.7569 9.3074 21.8759 8.65545C21.8759 8.65545 22.3861 8.15244 22.8388 7.14049C23.1594 6.42345 23.1733 5.60334 22.3861 5.42236C21.0855 5.12318 20.0132 6.07841 19.6933 7.09825C19.4454 7.88827 19.5776 8.4743 20.0632 9.08318C20.0985 9.12773 20.1372 9.17326 20.1766 9.21896C19.8832 9.78477 19.4798 10.5467 19.1382 11.1375C18.19 12.778 17.4738 14.0753 16.9325 14.0753C16.4998 14.0753 16.5056 12.758 16.5056 11.5246C16.5056 10.4614 16.5842 8.86274 16.647 7.20789C16.6677 6.66049 16.3938 6.34866 15.9352 6.06625C15.6564 5.89463 15.0615 5.55731 14.7169 5.55731C14.2011 5.55731 12.7131 5.62751 11.3073 9.69436C11.1301 10.2069 10.7819 11.1409 10.7819 11.1409L10.812 6.25036C10.812 6.13562 10.7509 6.02482 10.611 5.94904C10.3741 5.82033 9.74138 5.55731 9.1787 5.55731C8.91075 5.55731 8.77678 5.68192 8.77678 5.93047L8.72779 13.5819C8.72779 14.1633 8.74292 14.8415 8.80045 15.1381C8.85766 15.435 8.95053 15.6766 9.06527 15.8203C9.18018 15.9638 9.31284 16.0734 9.53163 16.1185C9.7353 16.1604 10.8505 16.3036 10.9085 15.8775C10.9779 15.3666 10.9807 14.8142 11.5662 12.7539C12.4779 9.54608 13.6664 7.98115 14.2253 7.4252C14.3231 7.32822 14.4345 7.3223 14.4291 7.48126C14.4054 8.18449 14.3214 9.94208 14.2651 11.4347C14.1137 15.43 14.8404 16.1706 15.8791 16.1706C16.6738 16.1706 17.7939 15.381 18.9945 13.3825C19.6635 12.2687 20.3295 11.1531 20.9923 10.0356C21.3561 10.3724 21.7646 10.7349 22.1726 11.1222C23.1211 12.0224 23.4324 12.8778 23.2258 13.6892C23.068 14.3094 22.4727 14.9487 21.4136 14.3275C21.1049 14.1462 20.9731 14.006 20.6627 13.8016C20.496 13.692 20.2414 13.6591 20.0887 13.7742C19.6922 14.073 19.4653 14.4534 19.3358 14.9242C19.2099 15.3824 19.6687 15.6245 20.1444 15.8364C20.5539 16.0187 21.4342 16.1839 21.9954 16.2026C24.1825 16.2758 25.9346 15.1466 27.1544 12.2339C27.3727 14.7495 28.3018 16.1729 29.9162 16.1729C30.9955 16.1729 32.0777 14.7778 32.5509 13.4053C32.6867 13.9647 32.8879 14.4513 33.1476 14.8627C34.3915 16.8337 36.8047 16.4096 38.0168 14.7358C38.3916 14.2187 38.4487 14.0329 38.4487 14.0329C38.6255 15.6132 39.8982 16.1653 40.6268 16.1653C41.4429 16.1653 42.2854 15.7795 42.876 14.45C42.9452 14.5943 43.0208 14.7322 43.1034 14.8627C44.3472 16.8337 46.7606 16.4096 47.9727 14.7358C48.0299 14.6573 48.0796 14.5862 48.1228 14.5221L48.1583 15.5602L47.0423 16.5838C45.1716 18.2984 43.7507 19.5986 43.6462 21.1131C43.513 23.0441 45.0783 23.7618 46.2641 23.8558C47.5212 23.9556 48.5997 23.2606 49.2615 22.2879C49.8441 21.4317 50.2254 19.5889 50.1973 17.769C50.1863 17.0402 50.1677 16.1135 50.1534 15.1202C50.8102 14.3576 51.55 13.3936 52.2312 12.2656C52.9736 11.0362 53.7692 9.38515 54.1766 8.10016C54.1766 8.10016 54.8678 8.10625 55.6055 8.05792C55.8414 8.04247 55.9093 8.09079 55.8656 8.26356C55.813 8.47266 54.9336 11.8644 55.7362 14.1238C56.2854 15.6707 57.5237 16.1681 58.2579 16.1681C59.1174 16.1681 59.9395 15.5191 60.3801 14.5555C60.4333 14.6628 60.4887 14.7667 60.5494 14.8629C61.7933 16.8339 64.198 16.407 65.4188 14.7358C65.6943 14.3587 65.8506 14.0329 65.8506 14.0329C66.1125 15.6685 67.3845 16.1737 68.113 16.1737C68.8718 16.1737 69.5921 15.8625 70.1763 14.4799C70.201 15.0888 70.2393 15.5865 70.3 15.7433C70.3369 15.8395 70.5526 15.9598 70.7094 16.018C71.4038 16.2755 72.1116 16.1538 72.3737 16.1009C72.5551 16.0641 72.6967 15.9184 72.7161 15.5426C72.767 14.5555 72.7358 12.897 73.035 11.6643C73.5372 9.59589 74.0058 8.79353 74.2281 8.39638C74.3525 8.17364 74.4927 8.13699 74.4978 8.37255C74.5083 8.84926 74.532 10.2487 74.7266 12.1292C74.8697 13.512 75.0603 14.3295 75.2071 14.5884C75.626 15.3281 76.143 15.3631 76.5641 15.3631C76.8321 15.3631 77.3923 15.2892 77.3421 14.8184C77.3177 14.5889 77.3604 13.1706 77.8557 11.1327C78.179 9.80186 78.7182 8.59956 78.9127 8.15984C78.9845 7.99775 79.0179 8.12548 79.0166 8.15047C78.9756 9.0669 78.8837 12.0646 79.2571 13.7042C79.7634 15.9252 81.2274 16.1737 81.7376 16.1737C82.8268 16.1737 83.7176 15.3452 84.0176 13.1652C84.0899 12.6404 83.9829 12.2354 83.6622 12.2354Z" fill="#343433"/>
</g>
<defs>
<clipPath id="clip0">
<rect width="84.17" height="24" fill="white"/>
</clipPath>
</defs>
</svg>
